ply
format ascii 1.0
comment Created by Blender 2.91.2 - www.blender.org
element vertex 32
property float x
property float y
property float z
property float nx
property float ny
property float nz
property uchar red
property uchar green
property uchar blue
property uchar alpha
element face 20
property list uchar uint vertex_indices
end_header
-0.063497 -0.063414 0.125986 -1.000000 0.000000 0.000000 89 113 255 255
-0.063497 0.063461 -0.000888 -1.000000 0.000000 0.000000 0 204 255 255
-0.063497 -0.063414 -0.000888 -1.000000 0.000000 0.000000 0 204 255 255
-0.063497 0.063461 0.125986 0.000000 1.000000 -0.000000 89 113 255 255
0.063377 0.063461 -0.000888 0.000000 1.000000 -0.000000 0 204 255 255
-0.063497 0.063461 -0.000888 0.000000 1.000000 -0.000000 0 204 255 255
0.063377 0.063461 0.125986 1.000000 0.000000 -0.000000 89 113 255 255
0.063377 -0.063414 -0.000888 1.000000 0.000000 -0.000000 0 204 255 255
0.063377 0.063461 -0.000888 1.000000 0.000000 -0.000000 0 204 255 255
0.063377 -0.063414 0.125986 0.000000 -1.000000 0.000000 89 113 255 255
-0.063497 -0.063414 -0.000888 0.000000 -1.000000 0.000000 0 204 255 255
0.063377 -0.063414 -0.000888 0.000000 -1.000000 0.000000 0 204 255 255
-0.063497 0.063461 0.125986 0.000000 0.000000 1.000000 89 113 255 255
0.063377 -0.063414 0.125986 0.000000 0.000000 1.000000 89 113 255 255
0.063377 0.063461 0.125986 0.000000 0.000000 1.000000 89 113 255 255
0.125229 -0.124795 0.000511 -0.000000 0.000000 1.000000 0 0 0 255
-0.110472 -0.111316 0.000511 -0.000000 0.000000 1.000000 0 0 0 255
-0.123950 -0.124795 0.000511 -0.000000 0.000000 1.000000 0 0 0 255
-0.123950 0.124384 0.000511 0.000000 0.000000 1.000000 0 0 0 255
-0.110472 0.110906 0.000511 0.000000 0.000000 1.000000 0 0 0 255
0.125229 0.124384 0.000511 0.000000 -0.000000 1.000000 0 0 0 255
0.111750 -0.111316 0.000511 0.000000 -0.000000 1.000000 0 0 0 255
0.111750 0.110906 0.000511 0.000000 0.000000 1.000000 0 0 0 255
0.119641 -0.119649 -0.000000 -0.000000 0.000000 1.000000 0 164 255 255
-0.119761 0.119695 -0.000000 -0.000000 0.000000 1.000000 0 164 255 255
-0.119761 -0.119649 -0.000000 -0.000000 0.000000 1.000000 0 164 255 255
-0.063497 0.063461 0.125986 -1.000000 0.000000 0.000000 89 113 255 255
0.063377 0.063461 0.125986 0.000000 1.000000 -0.000000 89 113 255 255
0.063377 -0.063414 0.125986 1.000000 0.000000 0.000000 89 113 255 255
-0.063497 -0.063414 0.125986 0.000000 -1.000000 0.000000 89 113 255 255
-0.063497 -0.063414 0.125986 0.000000 -0.000000 1.000000 89 113 255 255
0.119641 0.119695 -0.000000 -0.000000 0.000000 1.000000 0 164 255 255
3 0 1 2
3 3 4 5
3 6 7 8
3 9 10 11
3 12 13 14
3 15 16 17
3 18 16 19
3 20 21 15
3 18 22 20
3 23 24 25
3 0 26 1
3 3 27 4
3 6 28 7
3 9 29 10
3 12 30 13
3 15 21 16
3 18 17 16
3 20 22 21
3 18 19 22
3 23 31 24
