ply
format ascii 1.0
comment Created by Blender 2.91.2 - www.blender.org
element vertex 221
property float x
property float y
property float z
property float nx
property float ny
property float nz
property uchar red
property uchar green
property uchar blue
property uchar alpha
element face 275
property list uchar uint vertex_indices
end_header
0.005088 -0.008728 0.002928 -0.615589 -0.635914 0.465407 0 255 253 255
0.009895 -0.009221 0.000652 0.569109 -0.631092 -0.527055 0 255 253 255
0.009910 -0.008634 0.002872 0.650533 -0.611255 0.450697 0 255 253 255
0.009547 0.009208 0.001580 0.570513 0.555864 -0.604541 0 255 253 255
0.009589 0.009888 0.006293 0.586322 0.722770 0.365734 0 255 253 255
0.009774 0.002573 0.009939 0.621387 -0.027558 0.782983 0 255 253 255
0.004982 -0.000005 0.008428 -0.668020 -0.402661 0.625751 0 255 253 255
0.004865 0.005915 0.008282 -0.690573 0.308573 0.654103 0 255 253 255
0.006227 0.002504 0.009980 0.012787 -0.062777 0.997925 0 255 253 255
0.004767 0.009794 0.006349 -0.605365 0.699576 0.379559 0 255 253 255
0.005074 -0.009315 0.000708 -0.556200 -0.653005 -0.513962 0 255 253 255
0.004726 0.009114 0.001636 -0.605579 0.532975 -0.590899 0 255 253 255
-0.008265 -0.012139 0.012589 -0.177892 -0.971191 0.158452 0 255 253 255
0.001508 -0.007143 0.004098 0.000000 -0.861843 -0.507126 0 255 253 255
0.008321 -0.012139 0.012589 0.177587 -0.967711 0.178808 0 255 253 255
-0.005196 -0.018545 0.019652 -0.927396 -0.308115 0.211982 0 255 253 255
-0.004007 -0.018545 0.015886 -0.953307 -0.022950 -0.301065 0 255 253 255
-0.003655 -0.026144 0.015351 -0.654012 -0.729728 0.199255 0 255 253 255
-0.003052 -0.026144 0.016379 -0.338389 -0.820338 0.460952 0 255 253 255
-0.003597 -0.018545 0.022380 -0.353099 -0.595264 0.721732 0 255 253 255
0.003513 -0.026144 0.015351 0.654012 -0.729728 0.199255 0 255 253 255
0.002933 -0.025827 0.016629 0.435194 -0.576983 0.691122 0 255 253 255
0.002910 -0.026144 0.016379 0.338389 -0.820338 0.460952 0 255 253 255
0.005054 -0.018545 0.019652 0.927396 -0.308115 0.211982 0 255 253 255
0.003455 -0.018545 0.022380 0.353099 -0.595264 0.721732 0 255 253 255
0.003865 -0.018545 0.015886 0.953307 -0.022950 -0.301065 0 255 253 255
0.001839 -0.026144 0.015351 0.000000 -1.000000 0.000000 0 255 253 255
-0.002009 0.016532 0.003468 -0.566424 0.441450 -0.695853 0 255 253 255
0.001508 0.011879 0.004098 0.570696 -0.729179 -0.377575 0 255 253 255
-0.002389 0.011879 0.004098 -0.591693 -0.711173 -0.379559 0 255 253 255
0.001508 0.016532 0.003468 0.600635 0.420148 -0.680197 0 255 253 255
-0.001529 0.026144 0.030269 -0.514542 0.749016 0.417310 0 255 253 255
0.000616 0.025956 0.030368 0.600146 0.649983 0.466140 0 255 253 255
0.004912 0.002482 0.006575 -0.999725 -0.019440 0.011597 0 255 253 255
-0.009910 0.008221 0.001679 -0.586657 0.575732 -0.569506 0 255 253 255
-0.005117 0.008221 0.001679 0.586657 0.575732 -0.569506 0 255 253 255
-0.005117 -0.010546 -0.000000 0.564287 -0.611011 -0.555193 0 255 253 255
-0.009910 0.008686 0.007606 -0.591052 0.671712 0.446516 0 255 253 255
-0.005117 0.008686 0.007606 0.591052 0.671712 0.446516 0 255 253 255
-0.009910 -0.010081 0.002488 -0.630726 -0.651326 0.421766 0 255 253 255
-0.009910 0.000972 0.010154 -0.619068 -0.112400 0.777215 0 255 253 255
-0.009910 -0.010546 -0.000000 -0.564287 -0.611011 -0.555193 0 255 253 255
-0.005117 -0.002076 0.008040 0.675680 -0.420118 0.605731 0 255 253 255
-0.005117 -0.010081 0.002488 0.630726 -0.651326 0.421766 0 255 253 255
-0.005117 0.007371 0.008040 0.694021 0.225837 0.683584 0 255 253 255
-0.006580 0.000972 0.010154 0.000000 -0.164525 0.986358 0 255 253 255
-0.003375 -0.007981 0.018736 -0.511948 -0.465255 0.722068 0 255 253 255
-0.003067 -0.006960 0.019122 -0.782525 0.000000 0.622578 0 255 253 255
-0.005327 -0.006350 0.016282 -0.782525 0.000000 0.622578 0 255 253 255
0.005014 -0.006350 0.016287 0.745384 0.000000 0.666616 0 255 253 255
0.002477 -0.006953 0.019125 0.745384 0.000000 0.666616 0 255 253 255
0.002824 -0.007981 0.018736 0.477798 -0.467605 0.743645 0 255 253 255
-0.001589 0.025499 0.030347 -0.650136 -0.317942 0.690054 0 255 253 255
0.000556 0.025311 0.030446 0.524552 -0.420911 0.740013 0 255 253 255
0.001200 0.016216 0.012606 0.702719 -0.623218 0.343120 0 255 253 255
-0.005117 0.001899 0.005585 1.000000 0.000000 0.000000 0 255 253 255
-0.002389 -0.007143 0.004098 0.000000 -0.861843 -0.507126 0 255 253 255
-0.003353 -0.026144 0.015865 0.000000 -0.707083 -0.707083 0 255 253 255
-0.004007 -0.018547 0.015886 -0.582965 -0.781579 -0.221870 255 0 153 255
-0.003655 -0.026146 0.015351 0.000000 -0.070162 0.997528 255 0 153 255
0.001839 -0.026146 0.015351 0.000000 -0.070162 0.997528 255 0 153 255
0.003513 -0.026146 0.015351 0.000000 -0.070162 0.997528 255 0 153 255
0.003865 -0.018547 0.015886 0.582965 -0.781579 -0.221870 255 0 153 255
-0.005117 -0.002078 0.008040 -0.822291 0.000000 -0.569048 255 0 153 255
-0.002389 -0.007145 0.004098 -0.521287 0.000000 -0.853359 255 0 153 255
-0.008265 -0.012142 0.012589 -0.731040 0.000000 0.682302 255 0 153 255
-0.006580 0.000970 0.010154 -0.822291 0.000000 -0.569048 255 0 153 255
-0.008265 0.016063 0.012589 -0.586779 0.563494 0.581500 255 0 153 255
-0.005117 0.007369 0.008040 -0.822291 0.000000 -0.569048 255 0 153 255
-0.002389 0.011877 0.004098 -0.368328 0.427503 -0.825556 255 0 153 255
0.001508 0.011877 0.004098 0.336406 0.425764 -0.839961 255 0 153 255
0.004865 0.005913 0.008282 0.779931 0.000000 -0.625813 255 0 153 255
0.008321 0.016354 0.012589 0.576678 0.556993 0.597613 255 0 153 255
0.006227 0.002502 0.009980 0.779931 0.000000 -0.625813 255 0 153 255
0.008321 -0.012142 0.012589 0.729453 0.000000 0.683981 255 0 153 255
0.001508 -0.007145 0.004098 0.483810 0.000000 -0.875149 255 0 153 255
0.004982 -0.000008 0.008428 0.779900 0.000031 -0.625874 255 0 153 255
0.002824 -0.007984 0.018736 0.000000 0.353893 -0.935270 255 0 153 255
0.006005 -0.001118 0.021333 0.522355 0.681326 -0.512711 255 0 153 255
0.004037 -0.014824 0.016148 0.558245 0.133030 -0.818903 255 0 153 255
-0.004179 -0.014824 0.016148 -0.558245 0.133030 -0.818903 255 0 153 255
-0.003375 -0.007984 0.018736 0.000000 0.353862 -0.935270 255 0 153 255
-0.006147 -0.001118 0.021333 -0.522355 0.681326 -0.512711 255 0 153 255
-0.002598 -0.005393 0.019716 -0.476730 0.598590 -0.643727 255 0 153 255
0.001940 -0.005371 0.019724 0.461013 0.619160 -0.635670 255 0 153 255
-0.003067 -0.006962 0.019122 -0.266701 0.410169 -0.872127 255 0 153 255
0.002477 -0.006956 0.019125 0.262856 0.580035 -0.770959 255 0 153 255
-0.006315 -0.013030 0.022775 -0.982727 -0.182623 -0.029481 255 0 153 255
-0.003597 -0.018547 0.022380 -0.338389 -0.820338 0.460952 255 0 153 255
-0.003889 -0.014475 0.025596 -0.296640 -0.604846 0.738975 255 0 153 255
-0.002374 -0.005882 0.029721 -0.209754 0.265114 0.941099 255 0 153 255
-0.007435 -0.007512 0.025899 -0.949156 0.043092 0.311777 255 0 153 255
-0.004181 -0.010402 0.028812 -0.252022 -0.248695 0.935209 255 0 153 255
0.002232 -0.005882 0.029721 0.209754 0.265053 0.941130 255 0 153 255
0.004039 -0.010402 0.028812 0.252022 -0.248695 0.935209 255 0 153 255
0.007293 -0.007512 0.025899 0.949156 0.043092 0.311777 255 0 153 255
0.005905 -0.002619 0.026432 0.658010 -0.734489 0.165716 255 0 153 255
0.003455 -0.018547 0.022380 0.338389 -0.820338 0.460952 255 0 153 255
0.006173 -0.013030 0.022775 0.982727 -0.182623 -0.029481 255 0 153 255
0.003715 -0.014921 0.025244 0.435194 -0.576983 0.691122 255 0 153 255
0.003747 -0.014475 0.025596 0.296640 -0.604846 0.738975 255 0 153 255
0.002939 -0.012601 0.027076 0.000000 -0.619739 0.784783 255 0 153 255
0.005054 -0.018547 0.019652 0.720054 -0.693686 -0.016694 255 0 153 255
0.006298 -0.009746 0.022919 0.953307 -0.022950 -0.301065 255 0 153 255
-0.007374 -0.001440 0.025244 -0.720969 0.625050 0.299173 255 0 153 255
0.007232 -0.001440 0.025244 0.720969 0.625050 0.299173 255 0 153 255
-0.005196 -0.018547 0.019652 -0.720054 -0.693686 -0.016694 255 0 153 255
-0.006440 -0.009746 0.022919 -0.953307 -0.022950 -0.301065 255 0 153 255
0.004264 0.012239 0.017126 0.339488 0.358898 0.869411 255 0 153 255
0.005014 -0.006352 0.016287 0.745384 0.000000 0.666616 255 0 153 255
-0.004690 0.012082 0.017126 -0.375286 0.353069 0.857021 255 0 153 255
-0.005327 -0.006352 0.016282 -0.782800 -0.000641 0.622242 255 0 153 255
-0.003081 -0.012601 0.027076 0.000000 -0.619739 0.784783 255 0 153 255
-0.005905 -0.011335 0.025021 -0.783349 -0.418836 0.459243 0 0 0 255
-0.005692 -0.011735 0.025020 -0.783380 -0.418836 0.459181 0 0 0 255
-0.005557 -0.011902 0.025097 -0.783349 -0.418836 0.459243 0 0 0 255
-0.005416 -0.012032 0.025220 -0.783349 -0.418836 0.459243 0 0 0 255
-0.005968 -0.011131 0.025100 -0.783349 -0.418836 0.459243 0 0 0 255
-0.005277 -0.012116 0.025380 -0.783349 -0.418836 0.459243 0 0 0 255
-0.005997 -0.010941 0.025223 -0.783349 -0.418836 0.459243 0 0 0 255
-0.005989 -0.010780 0.025385 -0.783349 -0.418836 0.459243 0 0 0 255
-0.005150 -0.012148 0.025567 -0.783349 -0.418836 0.459243 0 0 0 255
-0.005944 -0.010658 0.025572 -0.783349 -0.418836 0.459243 0 0 0 255
-0.005044 -0.012126 0.025768 -0.783349 -0.418836 0.459243 0 0 0 255
-0.004966 -0.012052 0.025969 -0.783349 -0.418836 0.459243 0 0 0 255
-0.005866 -0.010583 0.025773 -0.783349 -0.418836 0.459243 0 0 0 255
-0.005760 -0.010561 0.025974 -0.783349 -0.418836 0.459243 0 0 0 255
-0.004921 -0.011930 0.026156 -0.783349 -0.418836 0.459243 0 0 0 255
-0.004913 -0.011768 0.026318 -0.783349 -0.418836 0.459243 0 0 0 255
-0.005633 -0.010593 0.026161 -0.783349 -0.418836 0.459243 0 0 0 255
-0.005494 -0.010677 0.026322 -0.783349 -0.418836 0.459243 0 0 0 255
-0.004942 -0.011579 0.026442 -0.783349 -0.418836 0.459243 0 0 0 255
-0.005005 -0.011374 0.026520 -0.783349 -0.418836 0.459243 0 0 0 255
-0.005353 -0.010807 0.026444 -0.783349 -0.418836 0.459243 0 0 0 255
-0.005100 -0.011168 0.026547 -0.783349 -0.418836 0.459243 0 0 0 255
-0.005218 -0.010975 0.026521 -0.783319 -0.418867 0.459243 0 0 0 255
0.005550 -0.011735 0.025020 0.783380 -0.418836 0.459212 0 0 0 255
0.005763 -0.011335 0.025021 0.783349 -0.418836 0.459243 0 0 0 255
0.005415 -0.011902 0.025097 0.783349 -0.418836 0.459243 0 0 0 255
0.005274 -0.012032 0.025220 0.783349 -0.418836 0.459243 0 0 0 255
0.005826 -0.011131 0.025100 0.783349 -0.418836 0.459243 0 0 0 255
0.005135 -0.012116 0.025380 0.783349 -0.418836 0.459243 0 0 0 255
0.005847 -0.010780 0.025385 0.783349 -0.418836 0.459243 0 0 0 255
0.005008 -0.012148 0.025567 0.783349 -0.418836 0.459243 0 0 0 255
0.005802 -0.010658 0.025572 0.783349 -0.418836 0.459243 0 0 0 255
0.004902 -0.012126 0.025768 0.783349 -0.418836 0.459243 0 0 0 255
0.004824 -0.012052 0.025969 0.783349 -0.418836 0.459243 0 0 0 255
0.005724 -0.010583 0.025773 0.783349 -0.418836 0.459243 0 0 0 255
0.004779 -0.011930 0.026156 0.783349 -0.418836 0.459243 0 0 0 255
0.005618 -0.010561 0.025974 0.783349 -0.418836 0.459243 0 0 0 255
0.004771 -0.011768 0.026318 0.783349 -0.418836 0.459243 0 0 0 255
0.005352 -0.010677 0.026322 0.783349 -0.418836 0.459243 0 0 0 255
0.004800 -0.011579 0.026442 0.783349 -0.418836 0.459243 0 0 0 255
0.004863 -0.011374 0.026520 0.783349 -0.418836 0.459243 0 0 0 255
0.005211 -0.010807 0.026444 0.783349 -0.418836 0.459243 0 0 0 255
0.004958 -0.011168 0.026547 0.783349 -0.418836 0.459243 0 0 0 255
-0.005811 -0.011541 0.024994 -0.783288 -0.418867 0.459273 0 0 0 255
0.005669 -0.011541 0.024994 0.783258 -0.418867 0.459365 0 0 0 255
0.005855 -0.010941 0.025223 0.783349 -0.418836 0.459243 0 0 0 255
0.005491 -0.010593 0.026161 0.783349 -0.418836 0.459243 0 0 0 255
0.005076 -0.010975 0.026521 0.783349 -0.418867 0.459181 0 0 0 255
-0.007435 -0.007512 0.025899 -0.891018 -0.346599 0.293069 255 255 255 255
-0.006440 -0.009746 0.022919 -0.953307 -0.022950 -0.301065 255 255 255 255
-0.006315 -0.013030 0.022775 -0.883969 -0.352886 0.306650 255 255 255 255
-0.005692 -0.011735 0.025020 -0.783349 -0.418836 0.459243 255 255 255 255
-0.003889 -0.014475 0.025596 -0.678762 -0.484451 0.551836 255 255 255 255
-0.005416 -0.012032 0.025220 -0.783349 -0.418836 0.459243 255 255 255 255
-0.005557 -0.011902 0.025097 0.783319 0.418806 -0.459304 255 255 255 255
-0.005150 -0.012148 0.025567 -0.783349 -0.418836 0.459243 255 255 255 255
-0.005277 -0.012116 0.025380 0.783349 0.418775 -0.459273 255 255 255 255
-0.004966 -0.012052 0.025969 -0.783349 -0.418836 0.459243 255 255 255 255
-0.005044 -0.012126 0.025768 0.783410 0.418714 -0.459243 255 255 255 255
-0.004921 -0.011930 0.026156 -0.783349 -0.418836 0.459243 255 255 255 255
-0.004942 -0.011579 0.026442 -0.783349 -0.418836 0.459243 255 255 255 255
-0.004913 -0.011768 0.026318 0.783319 0.418867 -0.459243 255 255 255 255
-0.005100 -0.011168 0.026547 -0.783349 -0.418836 0.459243 255 255 255 255
-0.005005 -0.011374 0.026520 0.783288 0.418867 -0.459304 255 255 255 255
-0.005353 -0.010807 0.026444 -0.783349 -0.418836 0.459243 255 255 255 255
-0.005218 -0.010975 0.026521 0.783349 0.418836 -0.459212 255 255 255 255
-0.005633 -0.010593 0.026161 -0.783319 -0.418867 0.459243 255 255 255 255
-0.005494 -0.010677 0.026322 0.783319 0.418958 -0.459151 255 255 255 255
-0.005760 -0.010561 0.025974 -0.783349 -0.418836 0.459243 255 255 255 255
-0.004181 -0.010402 0.028812 -0.695669 -0.475234 0.538621 255 255 255 255
-0.005944 -0.010658 0.025572 -0.783349 -0.418836 0.459243 255 255 255 255
-0.005866 -0.010583 0.025773 0.783319 0.418867 -0.459243 255 255 255 255
-0.005997 -0.010941 0.025223 -0.783349 -0.418836 0.459243 255 255 255 255
-0.005989 -0.010780 0.025385 0.783349 0.418836 -0.459243 255 255 255 255
-0.005905 -0.011335 0.025021 -0.783349 -0.418836 0.459243 255 255 255 255
-0.005968 -0.011131 0.025100 0.783380 0.418806 -0.459212 255 255 255 255
-0.005811 -0.011541 0.024994 -0.783349 -0.418836 0.459243 255 255 255 255
-0.003081 -0.012601 0.027076 0.000000 -0.619739 0.784783 255 255 255 255
0.003747 -0.014475 0.025596 0.678762 -0.484451 0.551836 255 255 255 255
0.004039 -0.010402 0.028812 0.695669 -0.475234 0.538621 255 255 255 255
0.002939 -0.012601 0.027076 0.000000 -0.619739 0.784783 255 255 255 255
0.005763 -0.011335 0.025021 0.783319 -0.418836 0.459243 255 255 255 255
0.006173 -0.013030 0.022775 0.883969 -0.352886 0.306650 255 255 255 255
0.007293 -0.007512 0.025899 0.891018 -0.346599 0.293069 255 255 255 255
0.005855 -0.010941 0.025223 0.783319 -0.418836 0.459273 255 255 255 255
0.005826 -0.011131 0.025100 -0.783441 0.418775 -0.459151 255 255 255 255
0.005802 -0.010658 0.025572 0.783349 -0.418836 0.459243 255 255 255 255
0.005847 -0.010780 0.025385 -0.783288 0.418897 -0.459273 255 255 255 255
0.005618 -0.010561 0.025974 0.783349 -0.418836 0.459243 255 255 255 255
0.005724 -0.010583 0.025773 -0.783258 0.418989 -0.459243 255 255 255 255
0.005491 -0.010593 0.026161 0.783349 -0.418836 0.459243 255 255 255 255
0.005211 -0.010807 0.026444 0.783349 -0.418836 0.459243 255 255 255 255
0.005352 -0.010677 0.026322 -0.783319 0.419050 -0.459090 255 255 255 255
0.004958 -0.011168 0.026547 0.783349 -0.418836 0.459243 255 255 255 255
0.005076 -0.010975 0.026521 -0.783319 0.418775 -0.459304 255 255 255 255
0.004800 -0.011579 0.026442 0.783349 -0.418836 0.459243 255 255 255 255
0.004863 -0.011374 0.026520 -0.783227 0.418867 -0.459395 255 255 255 255
0.004779 -0.011930 0.026156 0.783349 -0.418836 0.459243 255 255 255 255
0.004771 -0.011768 0.026318 -0.783319 0.418867 -0.459243 255 255 255 255
0.004824 -0.012052 0.025969 0.783349 -0.418836 0.459243 255 255 255 255
0.005008 -0.012148 0.025567 0.783349 -0.418836 0.459243 255 255 255 255
0.004902 -0.012126 0.025768 -0.783349 0.418806 -0.459243 255 255 255 255
0.005274 -0.012032 0.025220 0.783349 -0.418836 0.459243 255 255 255 255
0.005135 -0.012116 0.025380 -0.783380 0.418683 -0.459334 255 255 255 255
0.005550 -0.011735 0.025020 0.783349 -0.418836 0.459243 255 255 255 255
0.005415 -0.011902 0.025097 -0.783319 0.418775 -0.459365 255 255 255 255
0.005669 -0.011541 0.024994 0.783349 -0.418836 0.459243 255 255 255 255
0.006298 -0.009746 0.022919 0.953307 -0.022950 -0.301065 255 255 255 255
3 0 1 2
3 2 3 4
3 2 4 5
3 5 6 2
3 2 6 0
3 4 7 5
3 5 7 8
3 3 9 4
3 3 10 11
3 12 13 14
3 15 16 17
3 17 18 15
3 15 18 19
3 20 21 22
3 21 23 24
3 23 20 25
3 22 26 20
3 27 28 29
3 30 27 31
3 30 31 32
3 7 9 11
3 6 10 0
3 33 11 10
3 7 11 33
3 6 33 10
3 6 7 33
3 19 21 24
3 21 18 22
3 34 35 36
3 37 38 35
3 39 37 34
3 39 40 37
3 39 41 36
3 40 39 42
3 39 43 42
3 37 40 44
3 40 45 44
3 46 47 48
3 49 50 51
3 12 14 51
3 31 52 53
3 53 30 32
3 30 53 54
3 53 52 29
3 54 53 29
3 52 27 29
3 52 31 27
3 42 43 36
3 44 35 38
3 55 36 35
3 44 55 35
3 42 36 55
3 42 55 44
3 0 10 1
3 2 1 3
3 5 8 6
3 4 9 7
3 3 11 9
3 3 1 10
3 12 56 13
3 17 57 18
3 20 23 21
3 17 26 18
3 22 18 26
3 27 30 28
3 19 18 21
3 34 36 41
3 37 35 34
3 39 34 41
3 39 36 43
3 40 42 45
3 37 44 38
3 46 48 12
3 49 51 14
3 12 51 46
3 31 53 32
3 30 54 28
3 54 29 28
3 58 59 60
3 60 61 62
3 63 64 65
3 66 65 67
3 68 67 69
3 69 63 68
3 70 64 69
3 71 70 72
3 73 72 74
3 73 75 76
3 76 75 71
3 77 78 79
3 77 80 81
3 81 82 83
3 82 84 83
3 81 83 85
3 84 77 86
3 87 88 89
3 90 91 92
3 93 92 94
3 95 96 93
3 95 93 94
3 97 98 99
3 99 98 100
3 92 101 94
3 101 89 100
3 89 99 100
3 99 88 97
3 102 79 78
3 102 103 98
3 78 95 103
3 104 93 105
3 105 93 96
3 104 78 82
3 79 58 80
3 80 106 82
3 106 107 82
3 82 91 104
3 72 69 67
3 72 70 69
3 72 108 109
3 109 108 84
3 67 110 108
3 110 83 84
3 111 85 83
3 111 67 65
3 110 67 111
3 74 67 65
3 84 85 83
3 86 81 85
3 73 76 71
3 66 68 63
3 88 58 62
3 97 62 102
3 58 60 62
3 63 69 64
3 66 63 65
3 68 66 67
3 70 75 64
3 71 75 70
3 73 71 72
3 73 74 75
3 77 84 78
3 77 79 80
3 81 80 82
3 82 78 84
3 87 106 88
3 90 104 91
3 93 90 92
3 95 105 96
3 97 102 98
3 92 112 101
3 101 112 89
3 89 88 99
3 102 62 79
3 102 78 103
3 78 105 95
3 104 90 93
3 104 105 78
3 79 62 58
3 80 58 106
3 106 87 107
3 82 107 91
3 72 109 74
3 109 84 86
3 67 108 72
3 110 84 108
3 111 83 110
3 74 72 67
3 84 86 85
3 86 77 81
3 88 106 58
3 97 88 62
3 113 114 115
3 113 116 117
3 117 118 119
3 120 118 121
3 122 121 123
3 122 124 125
3 126 124 127
3 126 128 129
3 130 128 131
3 130 132 133
3 133 134 135
3 136 137 138
3 137 139 138
3 140 141 139
3 141 142 143
3 143 144 145
3 144 146 145
3 147 148 146
3 149 150 148
3 150 151 152
3 151 153 152
3 154 155 153
3 113 156 114
3 113 115 116
3 117 116 118
3 120 119 118
3 122 120 121
3 122 123 124
3 126 125 124
3 126 127 128
3 130 129 128
3 130 131 132
3 133 132 134
3 136 157 137
3 137 140 139
3 140 158 141
3 141 158 142
3 143 142 144
3 144 147 146
3 147 149 148
3 149 159 150
3 150 159 151
3 151 154 153
3 154 160 155
3 161 162 163
3 164 163 165
3 164 166 167
3 166 168 169
3 168 170 171
3 165 172 170
3 172 173 174
3 173 175 176
3 175 177 178
3 177 179 180
3 181 182 161
3 181 183 184
3 183 185 186
3 185 187 188
3 187 163 189
3 165 190 182
3 191 192 193
3 194 195 196
3 194 197 198
3 197 199 200
3 199 201 202
3 201 192 203
3 203 204 205
3 204 206 207
3 206 208 209
3 208 210 211
3 210 191 212
3 212 213 214
3 213 215 216
3 215 217 218
3 217 195 219
3 196 195 220
3 164 189 163
3 164 165 166
3 166 165 168
3 168 165 170
3 165 182 172
3 172 182 173
3 173 182 175
3 175 182 177
3 177 182 179
3 181 179 182
3 181 161 183
3 183 161 185
3 185 161 187
3 187 161 163
3 194 219 195
3 194 196 197
3 197 196 199
3 199 196 201
3 201 196 192
3 203 192 204
3 204 192 206
3 206 192 208
3 208 192 210
3 210 192 191
3 212 191 213
3 213 191 215
3 215 191 217
3 217 191 195
